<?xml version="1.0" encoding="UTF-8" standalone="no"?>
<!DOCTYPE svg PUBLIC "-//W3C//DTD SVG 1.1//EN"
 "http://www.w3.org/Graphics/SVG/1.1/DTD/svg11.dtd">
<!-- Generated by graphviz version 2.46.0 (20210118.1747)
 -->
<!-- Title: root Pages: 1 -->
<svg width="1033pt" height="876pt"
 viewBox="0.00 0.00 1033.00 876.00" xmlns="http://www.w3.org/2000/svg" xmlns:xlink="http://www.w3.org/1999/xlink">
<g id="graph0" class="graph" transform="scale(1 1) rotate(0) translate(144 732)">
<title>root</title>
<polygon fill="white" stroke="transparent" points="-144,144 -144,-732 889,-732 889,144 -144,144"/>
<text text-anchor="middle" x="372.5" y="-7.6" font-family="Sans-Serif" font-size="13.00" fill="#2d3436">App</text>
<g id="clust1" class="cluster">
<title>cluster_GCP</title>
<path fill="#e5f5fd" stroke="#aeb6be" d="M306,-30C306,-30 725,-30 725,-30 731,-30 737,-36 737,-42 737,-42 737,-568 737,-568 737,-574 731,-580 725,-580 725,-580 306,-580 306,-580 300,-580 294,-574 294,-568 294,-568 294,-42 294,-42 294,-36 300,-30 306,-30"/>
<text text-anchor="middle" x="313" y="-566.4" font-family="Sans-Serif" font-size="12.00" fill="#2d3436">App</text>
</g>
<g id="clust2" class="cluster">
<title>clusterdata</title>
<path fill="#ebf3e7" stroke="#aeb6be" d="M469,-211C469,-211 717,-211 717,-211 723,-211 729,-217 729,-223 729,-223 729,-366 729,-366 729,-372 723,-378 717,-378 717,-378 469,-378 469,-378 463,-378 457,-372 457,-366 457,-366 457,-223 457,-223 457,-217 463,-211 469,-211"/>
<text text-anchor="middle" x="494.5" y="-364.4" font-family="Sans-Serif" font-size="12.00" fill="#2d3436">Data Layer</text>
</g>
<g id="clust3" class="cluster">
<title>clusterservices</title>
<path fill="#ebf3e7" stroke="#aeb6be" d="M314,-38C314,-38 407,-38 407,-38 413,-38 419,-44 419,-50 419,-50 419,-539 419,-539 419,-545 413,-551 407,-551 407,-551 314,-551 314,-551 308,-551 302,-545 302,-539 302,-539 302,-50 302,-50 302,-44 308,-38 314,-38"/>
<text text-anchor="middle" x="347" y="-537.4" font-family="Sans-Serif" font-size="12.00" fill="#2d3436">Service Layer</text>
</g>
<!-- dpopkaxe -->
<g id="node1" class="node">
<title>dpopkaxe</title>
<image xlink:href="assets/gcp/network/dns.png" width="101px" height="101px" preserveAspectRatio="xMinYMin meet" x="0" y="-334.5"/>
<text text-anchor="middle" x="50.5" y="-222.6" font-family="Sans-Serif" font-size="13.00" fill="#2d3436">DNS</text>
</g>
<!-- srgpzboj -->
<g id="node2" class="node">
<title>srgpzboj</title>
<image xlink:href="assets/gcp/network/load-balancing.png" width="101px" height="101px" preserveAspectRatio="xMinYMin meet" x="155" y="-334.5"/>
<text text-anchor="middle" x="205.5" y="-222.6" font-family="Sans-Serif" font-size="13.00" fill="#2d3436">NLB</text>
</g>
<!-- dpopkaxe&#45;&gt;srgpzboj -->
<g id="edge1" class="edge">
<title>dpopkaxe&#45;&gt;srgpzboj</title>
<path fill="none" stroke="#7b8894" d="M101.25,-284C101.25,-284 144.9,-284 144.9,-284"/>
<polygon fill="#7b8894" stroke="#7b8894" points="144.9,-287.5 154.9,-284 144.9,-280.5 144.9,-287.5"/>
</g>
<!-- eanhwxac -->
<g id="node5" class="node">
<title>eanhwxac</title>
<image xlink:href="assets/gcp/compute/compute-engine.png" width="101px" height="101px" preserveAspectRatio="xMinYMin meet" x="310" y="-507.5"/>
<text text-anchor="middle" x="360.5" y="-395.6" font-family="Sans-Serif" font-size="13.00" fill="#2d3436">Server 2</text>
</g>
<!-- srgpzboj&#45;&gt;eanhwxac -->
<g id="edge3" class="edge">
<title>srgpzboj&#45;&gt;eanhwxac</title>
<path fill="none" stroke="#7b8894" d="M206,-349.4C206,-398.39 206,-457 206,-457 206,-457 299.91,-457 299.91,-457"/>
<polygon fill="#7b8894" stroke="#7b8894" points="299.91,-460.5 309.91,-457 299.91,-453.5 299.91,-460.5"/>
</g>
<!-- gxovmyry -->
<g id="node6" class="node">
<title>gxovmyry</title>
<image xlink:href="assets/gcp/compute/compute-engine.png" width="101px" height="101px" preserveAspectRatio="xMinYMin meet" x="310" y="-334.5"/>
<text text-anchor="middle" x="360.5" y="-222.6" font-family="Sans-Serif" font-size="13.00" fill="#2d3436">Server 3</text>
</g>
<!-- srgpzboj&#45;&gt;gxovmyry -->
<g id="edge4" class="edge">
<title>srgpzboj&#45;&gt;gxovmyry</title>
<path fill="none" stroke="#7b8894" d="M256.25,-284C256.25,-284 299.9,-284 299.9,-284"/>
<polygon fill="#7b8894" stroke="#7b8894" points="299.9,-287.5 309.9,-284 299.9,-280.5 299.9,-287.5"/>
</g>
<!-- tcphsjfk -->
<g id="node7" class="node">
<title>tcphsjfk</title>
<image xlink:href="assets/gcp/compute/compute-engine.png" width="101px" height="101px" preserveAspectRatio="xMinYMin meet" x="310" y="-161.5"/>
<text text-anchor="middle" x="360.5" y="-49.6" font-family="Sans-Serif" font-size="13.00" fill="#2d3436">Server 1</text>
</g>
<!-- srgpzboj&#45;&gt;tcphsjfk -->
<g id="edge8" class="edge">
<title>srgpzboj&#45;&gt;tcphsjfk</title>
<path fill="none" stroke="#7b8894" d="M206,-218.6C206,-169.61 206,-111 206,-111 206,-111 299.91,-111 299.91,-111"/>
<polygon fill="#7b8894" stroke="#7b8894" points="299.91,-114.5 309.91,-111 299.91,-107.5 299.91,-114.5"/>
</g>
<!-- utifqbok -->
<g id="node3" class="node">
<title>utifqbok</title>
<image xlink:href="assets/gcp/database/memorystore.png" width="101px" height="101px" preserveAspectRatio="xMinYMin meet" x="465" y="-334.5"/>
<text text-anchor="middle" x="515.5" y="-222.6" font-family="Sans-Serif" font-size="13.00" fill="#2d3436">Cache</text>
</g>
<!-- frmgcmhl -->
<g id="node4" class="node">
<title>frmgcmhl</title>
<image xlink:href="assets/gcp/database/sql.png" width="101px" height="101px" preserveAspectRatio="xMinYMin meet" x="620" y="-334.5"/>
<text text-anchor="middle" x="670.5" y="-222.6" font-family="Sans-Serif" font-size="13.00" fill="#2d3436">Database</text>
</g>
<!-- utifqbok&#45;&gt;frmgcmhl -->
<g id="edge2" class="edge">
<title>utifqbok&#45;&gt;frmgcmhl</title>
<path fill="none" stroke="#7b8894" d="M566.25,-284C566.25,-284 609.9,-284 609.9,-284"/>
<polygon fill="#7b8894" stroke="#7b8894" points="609.9,-287.5 619.9,-284 609.9,-280.5 609.9,-287.5"/>
</g>
<!-- eanhwxac&#45;&gt;utifqbok -->
<g id="edge6" class="edge">
<title>eanhwxac&#45;&gt;utifqbok</title>
<path fill="none" stroke="#7b8894" d="M411.42,-457C456.77,-457 516,-457 516,-457 516,-457 516,-359.4 516,-359.4"/>
<polygon fill="#7b8894" stroke="#7b8894" points="519.5,-359.4 516,-349.4 512.5,-359.4 519.5,-359.4"/>
</g>
<!-- gxovmyry&#45;&gt;utifqbok -->
<g id="edge7" class="edge">
<title>gxovmyry&#45;&gt;utifqbok</title>
<path fill="none" stroke="#7b8894" d="M411.25,-284C411.25,-284 454.9,-284 454.9,-284"/>
<polygon fill="#7b8894" stroke="#7b8894" points="454.9,-287.5 464.9,-284 454.9,-280.5 454.9,-287.5"/>
</g>
<!-- tcphsjfk&#45;&gt;utifqbok -->
<g id="edge5" class="edge">
<title>tcphsjfk&#45;&gt;utifqbok</title>
<path fill="none" stroke="#7b8894" d="M411.42,-111C456.77,-111 516,-111 516,-111 516,-111 516,-208.6 516,-208.6"/>
<polygon fill="#7b8894" stroke="#7b8894" points="512.5,-208.6 516,-218.6 519.5,-208.6 512.5,-208.6"/>
</g>
</g>
</svg>
